PathFileType	4	(X/Y/Z)	18_1_21_p0_0-213_filt_butterworth.trc
DataRate	CameraRate	NumFrames	NumMarkers	Units	OrigDataRate	OrigDataStartFrame	OrigNumFrames
54.0	54.0	4	27	m	54.0	0	213
Frame#	Time	RHip			RKnee			RAnkle			RBigToe			RSmallToe			RHeel			LHip			LKnee			LAnkle			LBigToe			LSmallToe			LHeel			Neck			Head			Nose			RShoulder			RElbow			RWrist			RThumb			RIndex			RPinky			LShoulder			LElbow			LWrist			LThumb			LIndex			LPinky			
		X1	Y1	Z1	X2	Y2	Z2	X3	Y3	Z3	X4	Y4	Z4	X5	Y5	Z5	X6	Y6	Z6	X7	Y7	Z7	X8	Y8	Z8	X9	Y9	Z9	X10	Y10	Z10	X11	Y11	Z11	X12	Y12	Z12	X13	Y13	Z13	X14	Y14	Z14	X15	Y15	Z15	X16	Y16	Z16	X17	Y17	Z17	X18	Y18	Z18	X19	Y19	Z19	X20	Y20	Z20	X21	Y21	Z21	X22	Y22	Z22	X23	Y23	Z23	X24	Y24	Z24	X25	Y25	Z25	X26	Y26	Z26	X27	Y27	Z27	
0	0.0	0.2579821051910085	0.43894143991631684	1.2050998012092808	0.23601255344668953	0.5062158168435089	1.6467293713561935	0.23239794293802626	0.5596154031430276	2.0253143149296378	0.21376817429515102	0.3517214389253689	2.015412524241287	0.2760071686117104	0.3951433174642405	2.0287023346977127	0.21966477490629088	0.6622312162078534	2.0841832338931994	0.051479405905664896	0.42988402214674215	1.2027783966656018	0.03466780855150026	0.5126409066208165	1.655535063808014	0.03655328812155082	0.5829337803657477	2.0111303931098155	0.05876151641620716	0.3780552999911508	2.0154971929236805	-0.0017825549374593673	0.4382525886849362	2.0309245590703897	0.04906664959393113	0.6342714419604144	2.056938990284631	0.17485277616304387	0.36409187688625033	0.6945583893511362	0.18116755049024694	0.28485010518004367	0.45881564687447046	0.17259756136287102	0.2423231342956671	0.5853841854534364	0.30782897353750566	0.3241187698613465	0.7682834749598159	0.29858170255640504	0.23656279733907937	0.9954953516560895	0.21344023991356567	-0.010128717522653097	1.1063370333791078	0.10997428771971972	-0.03772172203468416	1.1340866957849063	0.10339068826092822	-0.03604744692097735	1.152733622598865	0.12574054382634414	-0.023745102261809675	1.1955621956988125	0.029821473418968524	0.3816357037232494	0.7692760660368021	0.01559683824979804	0.22189863616931693	0.9491830862696486	0.061606275715128625	0.01592236106909056	1.074246348921801	0.11647816701402665	-0.04869984048743835	1.1205808878094854	0.12347912112776478	-0.045659055787963525	1.1324793667108106	0.1048297834384106	-0.027062242523240868	1.1643279009097107
1	0.0185185185185185	0.26018755048306386	0.4445750369975907	1.2069584574112158	0.23859631317903934	0.5154046609008565	1.6557484872235344	0.23451630940754417	0.5438859576197432	2.0171740343474065	0.21608153846984668	0.34240077892032733	2.0117962069137096	0.27923337972279866	0.395194881531001	2.028613196533225	0.22130888558588532	0.666585112129748	2.0918195791458962	0.050461129409365535	0.42987340964012277	1.2041455801147143	0.034628256923477325	0.5127161831702969	1.655541155881148	0.0371515607585367	0.5842651607043179	2.0167313198964036	0.05806725937858741	0.3785597474661358	2.0186213752727853	-0.0018168672552639899	0.43779813580832194	2.0306839844921583	0.04469138624420319	0.6375248227700933	2.0624267845644	0.17510945064245592	0.3638245784950861	0.6924409217338386	0.18200588001109425	0.2955794179223937	0.458630386963949	0.17260944165570605	0.24187263148447263	0.5852775817489407	0.30784487955680173	0.32435841519063485	0.7681059325165078	0.29850870763097326	0.23722274408223074	0.9912424467043722	0.21499485156334908	-0.007537644994959205	1.1019451060609324	0.10914283167984713	-0.04620940012677131	1.1313007497984366	0.10483580746355095	-0.04062261861435366	1.1455147849819545	0.12978807497248265	-0.02673697251937688	1.1879793639988836	0.03039593778308312	0.3826323249425948	0.7690671238252724	0.013202738323046661	0.2134499300664472	0.9501510842018042	0.06023484910826706	0.013808957349920083	1.0691984640322107	0.11674766099537037	-0.05903127757310192	1.116426260684275	0.12192625097949121	-0.05345612343101753	1.1295962133158257	0.10549614879565011	-0.03614270643381781	1.1549895977506974
2	0.037037037037037	0.26045826056143984	0.44696466454637007	1.2071674025075718	0.23999116541509402	0.5199832686568254	1.6596342960860044	0.2362164381102047	0.5377040220995347	2.014049375038056	0.2170832952272438	0.337114935747971	2.009182953760382	0.2810236407046972	0.3952680310446913	2.028579330817238	0.22222579412983604	0.6689762676889541	2.096019017067205	0.0496426338919805	0.4294450112927379	1.2039776819819166	0.034495380563435804	0.5129912929163112	1.6556487357190406	0.037546412904719495	0.5846162458501138	2.020407337019787	0.057742438801636126	0.3788535587569472	2.020343174736513	-0.0019487932604175728	0.43691529412614977	2.029252079303859	0.0437751030190319	0.6365389066775815	2.0650522903533695	0.1752723536800102	0.3635299725450193	0.6905905552414129	0.18227919361296052	0.3023725856914635	0.4592309148008663	0.17261855023183303	0.24174577226905553	0.5852401273639856	0.3078079235763536	0.3245391655863385	0.7679986648293751	0.29847143690341194	0.2354472263304756	0.9863489494117528	0.2148268647077598	-0.007766884420585759	1.096770750237355	0.1091147381577511	-0.05193188191687627	1.1285560608355591	0.10612866572000756	-0.04472633804303987	1.1397892428176826	0.129502765731671	-0.03071119331636906	1.178036642772971	0.030694002726665403	0.38321622753801515	0.7689321800509773	0.011739328408913289	0.20547217408779256	0.9489768904481135	0.06032243237865976	0.010299956914426525	1.0651969975888218	0.11773558436585148	-0.06678059377161533	1.1126593257102264	0.12174226123742891	-0.06075853127172998	1.126330914724656	0.10556077700849958	-0.043204152790789534	1.1461557607551403
3	0.0555555555555555	0.2590273251912671	0.445176242762154	1.2071388181916993	0.24022220305831152	0.5203329163830034	1.6589359012935172	0.23702703183751417	0.539339547104522	2.015366193543911	0.21671063395128937	0.33598420621519054	2.008089808285523	0.28139965384743365	0.3953400503136255	2.028592247158195	0.22231705852982997	0.6691052775141416	2.0963090187819677	0.0484165290038322	0.4298799651590587	1.2034243472257096	0.03438454051230817	0.5131409862111143	1.6558594855674522	0.037698687975702055	0.5842682774638536	2.0217581511441725	0.05775810066291788	0.3789440649685313	2.0206686600232655	-0.0021644777592110627	0.4357805935115533	2.026924633203128	0.04593909434014689	0.6341379709756426	2.065521878147978	0.17534353898401722	0.36325390905490307	0.6891915572432594	0.18189709709268592	0.3054212957956742	0.4604202431421619	0.17259654518152956	0.24299209918103987	0.5852148677547312	0.3077394675140844	0.32461545298489153	0.7679591719153466	0.29853214875572903	0.23023650400514967	0.9804217725322648	0.2129714814456831	-0.00987694091132696	1.0916667686739752	0.10957347119766844	-0.05403239034397639	1.126092629076385	0.10719116933558462	-0.048212919019464465	1.1358698172433634	0.1263067466856383	-0.03523962786636226	1.1666026656749384	0.030721583001630193	0.3833834193673191	0.7689054695832162	0.011087123616485483	0.1972554919012353	0.9459447135190929	0.061414114634713406	0.005990269721838394	1.0622445197640356	0.11920599047785796	-0.07103637018237875	1.1088208733248188	0.12294162212165477	-0.06680874877100741	1.1227758471141387	0.1052861745585965	-0.04700730731971742	1.1385466219355331
